<?xml version="1.0" encoding="utf-8"?>
<!-- Generator: Adobe Illustrator 16.0.0, SVG Export Plug-In . SVG Version: 6.00 Build 0)  -->
<!DOCTYPE svg PUBLIC "-//W3C//DTD SVG 1.1//EN" "http://www.w3.org/Graphics/SVG/1.1/DTD/svg11.dtd">
<svg version="1.1" id="Layer_1" xmlns="http://www.w3.org/2000/svg" xmlns:xlink="http://www.w3.org/1999/xlink" x="0px" y="0px"
	 width="18px" height="18px" viewBox="-0.5 -0.5 18 18" enable-background="new -0.5 -0.5 18 18" xml:space="preserve">
<path id="path0_fill" d="M8.5-0.5c-2.444,0-2.751,0.01-3.71,0.054C3.832-0.402,3.177-0.25,2.604-0.027
	C2.013,0.203,1.511,0.51,1.011,1.011c-0.5,0.5-0.808,1.002-1.038,1.594C-0.25,3.177-0.402,3.832-0.446,4.789
	C-0.49,5.749-0.5,6.056-0.5,8.5c0,2.443,0.01,2.75,0.054,3.711c0.043,0.957,0.196,1.611,0.418,2.186
	c0.23,0.592,0.538,1.094,1.038,1.594c0.5,0.501,1.002,0.808,1.594,1.037c0.573,0.224,1.227,0.375,2.185,0.418
	C5.749,17.49,6.056,17.5,8.5,17.5c2.443,0,2.75-0.01,3.711-0.055c0.957-0.043,1.611-0.195,2.186-0.418
	c0.592-0.23,1.094-0.537,1.594-1.038c0.501-0.5,0.808-1.003,1.037-1.595c0.224-0.572,0.375-1.228,0.418-2.185
	C17.49,11.25,17.5,10.943,17.5,8.5c0-2.444-0.01-2.751-0.055-3.711c-0.043-0.958-0.195-1.612-0.418-2.185
	c-0.23-0.592-0.537-1.094-1.039-1.594c-0.5-0.5-1.002-0.808-1.594-1.038c-0.572-0.223-1.228-0.375-2.185-0.418
	C11.25-0.49,10.943-0.5,8.5-0.5z M8.5,1.122c2.402,0,2.688,0.009,3.637,0.052c0.877,0.04,1.354,0.187,1.672,0.31
	c0.42,0.164,0.719,0.358,1.034,0.673c0.315,0.315,0.511,0.615,0.673,1.035c0.123,0.317,0.271,0.794,0.312,1.671
	C15.87,5.812,15.88,6.096,15.88,8.5c0,2.404-0.01,2.688-0.053,3.637c-0.04,0.877-0.188,1.354-0.312,1.672
	c-0.162,0.42-0.356,0.719-0.673,1.034c-0.315,0.315-0.614,0.511-1.034,0.673c-0.317,0.123-0.795,0.271-1.672,0.312
	C11.188,15.87,10.904,15.88,8.5,15.88c-2.404,0-2.688-0.01-3.637-0.053c-0.877-0.04-1.354-0.188-1.671-0.312
	c-0.42-0.162-0.72-0.356-1.035-0.673c-0.315-0.315-0.51-0.614-0.673-1.034c-0.123-0.317-0.27-0.795-0.31-1.672
	C1.131,11.188,1.122,10.902,1.122,8.5c0-2.403,0.009-2.688,0.053-3.637c0.04-0.877,0.187-1.354,0.31-1.671
	c0.164-0.42,0.358-0.72,0.673-1.035c0.315-0.315,0.615-0.51,1.035-0.673c0.317-0.123,0.794-0.27,1.671-0.31
	C5.812,1.131,6.097,1.122,8.5,1.122z M8.5,3.878c-2.552,0-4.622,2.069-4.622,4.622s2.069,4.621,4.622,4.621
	c2.553,0,4.621-2.068,4.621-4.621S11.053,3.878,8.5,3.878z M8.5,11.5c-1.657,0-3-1.344-3-3c0-1.657,1.343-3,3-3c1.656,0,3,1.343,3,3
	C11.5,10.156,10.156,11.5,8.5,11.5z M14.385,3.696c0,0.596-0.484,1.08-1.08,1.08c-0.597,0-1.08-0.484-1.08-1.08
	c0-0.597,0.483-1.08,1.08-1.08C13.9,2.616,14.385,3.099,14.385,3.696z"/>
</svg>
