<?xml version="1.0" standalone="no"?>
<!DOCTYPE svg PUBLIC "-//W3C//DTD SVG 20010904//EN"
 "http://www.w3.org/TR/2001/REC-SVG-20010904/DTD/svg10.dtd">
<svg version="1.0" xmlns="http://www.w3.org/2000/svg"
 width="700.000000pt" height="700.000000pt" viewBox="0 0 700.000000 700.000000"
 preserveAspectRatio="xMidYMid meet">
<metadata>
Created by potrace 1.14, written by Peter Selinger 2001-2017
</metadata>
<g transform="translate(0.000000,700.000000) scale(0.100000,-0.100000)"
fill="#000000" stroke="none">
<path d="M1850 4650 l0 -200 335 0 335 0 0 -1180 0 -1180 653 0 c358 0 704 5
767 10 217 18 419 90 597 212 98 67 241 209 316 315 448 630 308 1576 -296
2007 -179 128 -434 216 -623 216 l-54 0 0 -209 0 -208 72 -7 c92 -8 234 -56
321 -107 280 -166 445 -516 424 -898 -20 -360 -236 -675 -570 -831 -45 -21
-118 -49 -162 -61 -77 -22 -99 -23 -562 -26 l-483 -4 0 975 0 976 340 0 340 0
0 200 0 200 -875 0 -875 0 0 -200z"/>
</g>
</svg>
