<?xml version="1.0" standalone="no"?>
<!DOCTYPE svg PUBLIC "-//W3C//DTD SVG 20010904//EN"
 "http://www.w3.org/TR/2001/REC-SVG-20010904/DTD/svg10.dtd">
<svg version="1.0" xmlns="http://www.w3.org/2000/svg"
 width="700.000000pt" height="700.000000pt" viewBox="0 0 700.000000 700.000000"
 preserveAspectRatio="xMidYMid meet">
<metadata>
Created by potrace 1.11, written by Peter Selinger 2001-2013
</metadata>
<g transform="translate(0.000000,700.000000) scale(0.100000,-0.100000)"
fill="#000000" stroke="none">
<path d="M3345 6934 c-533 -40 -893 -129 -1315 -326 -929 -434 -1639 -1310
-1875 -2313 -61 -262 -88 -505 -88 -795 0 -228 10 -367 44 -570 224 -1355
1256 -2458 2594 -2775 261 -61 504 -88 795 -88 529 0 990 102 1470 325 854
398 1542 1192 1816 2096 103 341 147 645 147 1012 0 228 -10 367 -44 570 -224
1355 -1256 2458 -2594 2775 -125 29 -320 61 -450 74 -113 12 -425 21 -500 15z
m263 -2316 l-3 -193 -332 -3 -333 -2 0 -966 0 -965 478 4 c458 3 480 4 557 26
477 134 774 565 725 1051 -45 452 -301 756 -695 825 -48 8 -92 15 -96 15 -5 0
-9 90 -9 200 l0 200 48 0 c173 0 421 -84 597 -203 82 -55 249 -226 311 -317
275 -403 329 -925 143 -1390 -141 -350 -436 -631 -784 -745 -158 -51 -225 -55
-974 -55 l-691 0 0 1160 0 1160 -330 0 -330 0 0 195 0 195 860 0 860 0 -2
-192z"/>
</g>
</svg>
